<?xml version="1.0" encoding="utf-8"?>
<!-- Generator: Adobe Illustrator 14.0.0, SVG Export Plug-In . SVG Version: 6.00 Build 43363)  -->
<!DOCTYPE svg PUBLIC "-//W3C//DTD SVG 1.1//EN" "http://www.w3.org/Graphics/SVG/1.1/DTD/svg11.dtd">
<svg version="1.1" id="Layer_1" xmlns="http://www.w3.org/2000/svg" xmlns:xlink="http://www.w3.org/1999/xlink" x="0px" y="0px"
	 width="612px" height="612px" viewBox="0 0 612 612" enable-background="new 0 0 612 612" xml:space="preserve">
<rect fill="none" width="612" height="612"/>
<g opacity="0.05">
	<path d="M380.746,353.314c0,4.668-2.619,8.854-6.754,11.623l25.217-11.715l-26.594-12.348
		C377.521,343.605,380.746,348.152,380.746,353.314z"/>
	<path d="M300.269,203.319h11.591v110.973h-11.591V203.319z"/>
	<path d="M377.02,290.493c0.764-24.73-12.08-47.687-31.737-61.022l-7.996,10.848c15.872,10.323,24.835,28.767,24.835,48.62
		c0,30.259-20.774,57.249-55.228,57.249c-34.611,0-55.405-26.988-55.405-57.249c0-19.5,8.636-37.586,24.019-48.026l-8.715-11.793
		c-19.554,12.693-32.002,34.6-32.002,59.819c0,40.042,32.374,70.802,72.104,70.802l62.82-0.091c0.084,0,0.162,0.026,0.254,0.026
		c3.723,0,6.75-3.028,6.75-6.747c0-3.731-3.027-6.742-6.75-6.742l-22.312,0.008C364.438,333.9,376.328,312.866,377.02,290.493z"/>
</g>
<path opacity="0.05" d="M435.104,382.965h-1.121v-0.91h3.254v0.91h-1.113v2.969h-1.02V382.965z M438.064,382.055h1.363l0.926,2.525
	l0.92-2.525h1.365v3.879h-1.018v-2.521h-0.016l-0.926,2.521h-0.656l-0.926-2.521h-0.016v2.521h-1.02v-3.879H438.064z"/>
<g opacity="0.05">
	<path d="M196.932,388.047c-1.06-1.499-2.956-2.206-4.888-2.206c-2.285,0-4.571,1.024-4.571,3.584
		c0,5.601,13.243,2.41,13.243,12.345c0,5.993-4.729,8.909-10.208,8.909c-3.468,0-6.862-1.062-9.148-3.787l3.748-3.626
		c1.219,1.855,3.31,2.919,5.516,2.919c2.289,0,4.894-1.259,4.894-3.82c0-6.113-13.25-2.604-13.25-12.579
		c0-5.756,5.125-8.438,10.291-8.438c2.916,0,5.835,0.824,8.002,2.875L196.932,388.047z"/>
	<path d="M239.795,409.976h-16.248c-8.672,0-15.215-5.484-15.215-14.551c0-8.206,6.701-14.077,14.667-14.077
		c7.965,0,14.669,5.871,14.669,14.077c0,5.832-3.194,8.907-5.875,10.446v0.076h8.002V409.976L239.795,409.976z M213.533,395.537
		c0,5.72,3.983,9.939,9.422,9.939c5.521,0,9.507-4.221,9.507-9.939c0-5.559-3.943-9.696-9.581-9.696
		C217.477,385.841,213.533,389.979,213.533,395.537z"/>
	<path d="M247.364,382.055h4.97v23.423H264.2v4.498h-16.836V382.055z"/>
	<path d="M271.495,382.055h10.37c5.796,0,10.607,1.854,10.607,8.478c0,6.545-4.458,8.553-10.333,8.553h-4.495v10.892h-6.149V382.055
		z M277.644,393.886h4.102c2.167,0,4.339-0.749,4.339-3.354c0-2.878-2.922-3.271-5.281-3.271h-3.16V393.886L277.644,393.886z"/>
	<path d="M313.842,381.348c8.712,0,15.06,5.719,15.06,14.666c0,8.945-6.348,14.665-15.06,14.665c-8.715,0-15.062-5.72-15.062-14.665
		C298.78,387.066,305.127,381.348,313.842,381.348z M313.842,405.002c5.245,0,8.676-3.787,8.676-8.988s-3.431-8.99-8.676-8.99
		c-5.247,0-8.678,3.789-8.678,8.99S308.595,405.002,313.842,405.002z"/>
	<path d="M334.106,382.055h6.704l4.455,17.901h0.076l5.834-17.901h5.721l5.799,18.377h0.076l4.689-18.377h6.23l-8.16,27.921h-5.48
		l-6.15-19.325h-0.078l-6.152,19.325h-5.28L334.106,382.055z"/>
	<path d="M380.635,382.055H399.6v5.676h-12.814v5.211h12.105v5.678h-12.105v5.677h13.525v5.681h-19.676V382.055z"/>
	<path d="M409.18,382.055h10.803c5.719,0,10.529,1.975,10.529,8.478c0,3.905-2.092,6.938-6.033,7.65l7.098,11.793h-7.375
		l-5.836-11.161h-3.035v11.161h-6.148v-27.921H409.18z M415.33,393.605h3.625c2.25,0,5.17-0.08,5.17-3.108
		c0-2.8-2.523-3.235-4.773-3.235h-4.021V393.605L415.33,393.605z"/>
</g>
<g>
	<g>
		<g opacity="0.05">
			<text transform="matrix(1 0 0 1 162.9463 518.9902)" font-family="'DIN-Bold'" font-size="33">EVALUATION ONLY</text>
		</g>
		<text transform="matrix(1 0 0 1 165.8442 549.4902)" opacity="0.05" font-family="'DIN-Bold'" font-size="27">NOT FOR PRODUCTION</text>
	</g>
	<g>
		<g opacity="0.05">
			<text transform="matrix(1 0 0 1 162.9463 84.9902)" font-family="'DIN-Bold'" font-size="33">EVALUATION ONLY</text>
		</g>
		<text transform="matrix(1 0 0 1 165.8442 115.4902)" opacity="0.05" font-family="'DIN-Bold'" font-size="27">NOT FOR PRODUCTION</text>
	</g>
</g>
</svg>
